<svg width="800" height="800" viewBox="0 0 800 800" fill="none" xmlns="http://www.w3.org/2000/svg">
<rect x="2.5" y="2.5" width="795" height="795" rx="57.5" stroke="black" stroke-width="5"/>
<circle cx="400" cy="400" r="323" stroke="black" stroke-width="4"/>
<path d="M160 184.003C198.08 356.969 191.371 450.82 159.5 616.003" stroke="black" stroke-width="4"/>
<path d="M237.001 121C289.775 329.647 279.45 453.738 237.001 680" stroke="black" stroke-width="4"/>
<path d="M320 86C384.301 330.126 376.273 467.689 320 714" stroke="black" stroke-width="4"/>
<path d="M640.265 185.003C602.185 357.969 608.894 451.82 640.765 617.003" stroke="black" stroke-width="4"/>
<path d="M563.265 122C510.49 330.647 520.815 454.738 563.265 681" stroke="black" stroke-width="4"/>
<path d="M480.266 87C415.964 331.126 423.992 468.689 480.266 715" stroke="black" stroke-width="4"/>
<line x1="401" y1="76" x2="401" y2="724" stroke="black" stroke-width="2"/>
<rect x="266" y="342" width="269" height="115" rx="18" fill="#A7D0F5" stroke="black" stroke-width="4"/>
<path d="M301.324 428.953V391.844C301.324 386.473 303.342 381.801 307.379 377.83C311.155 374.152 315.891 372.312 321.588 372.312H328.18V372.801L324.273 381.004H321.588C318.658 381.004 316.168 381.883 314.117 383.641C312.099 385.366 311.09 388.1 311.09 391.844C311.09 391.844 311.09 402.749 311.09 424.559L301.812 428.953H301.324Z" fill="#09157D"/>
<path d="M430.324 428.953V391.844C430.324 386.473 432.342 381.801 436.379 377.83C440.155 374.152 444.891 372.312 450.588 372.312C455.764 372.312 460.24 374.201 464.016 377.977C464.732 378.693 465.383 379.539 465.969 380.516C466.555 379.572 467.206 378.742 467.922 378.025C471.991 374.217 476.467 372.312 481.35 372.312C486.981 372.312 491.717 374.152 495.559 377.83C499.595 381.736 501.613 386.408 501.613 391.844V424.559L492.336 428.953H491.848V391.844C491.848 388.1 490.822 385.366 488.771 383.641C486.753 381.883 484.279 381.004 481.35 381.004C478.42 381.004 475.93 381.883 473.879 383.641C471.861 385.366 470.852 388.1 470.852 391.844V424.559L461.574 428.953H461.086V391.844C461.086 388.1 460.061 385.366 458.01 383.641C455.992 381.883 453.518 381.004 450.588 381.004C447.658 381.004 445.168 381.883 443.117 383.641C441.099 385.366 440.09 388.1 440.09 391.844V424.559L430.812 428.953H430.324Z" fill="#09157D"/>
<path d="M397.852 405.369V408.445C397.852 413.816 395.833 418.488 391.797 422.459C388.021 426.137 383.285 427.977 377.588 427.977C371.956 427.977 367.22 426.137 363.379 422.459C359.342 418.553 357.324 413.882 357.324 408.445V391.844C357.324 386.473 359.342 381.801 363.379 377.83C367.155 374.152 371.891 372.312 377.588 372.312C383.122 372.312 387.858 374.152 391.797 377.83C395.833 381.606 397.852 385.805 397.852 390.428V390.525L368.066 413.865C368.555 414.972 369.238 415.9 370.117 416.648C372.168 418.406 374.658 419.285 377.588 419.285C380.518 419.285 382.992 418.406 385.01 416.648C387.061 414.891 388.086 412.596 388.086 409.764L397.363 405.369H397.852ZM367.09 404.002L387.5 387.449C386.979 385.854 386.165 384.585 385.059 383.641C383.008 381.883 380.518 381.004 377.588 381.004C374.658 381.004 372.168 381.883 370.117 383.641C368.099 385.366 367.09 388.1 367.09 391.844V404.002Z" fill="#09157D"/>
</svg>
