<svg width="800" height="800" viewBox="0 0 800 800" fill="none" xmlns="http://www.w3.org/2000/svg">
<rect x="2.5" y="2.5" width="795" height="795" rx="57.5" stroke="black" stroke-width="5"/>
<line x1="33" y1="687" x2="768" y2="687" stroke="black" stroke-width="4"/>
<line x1="31" y1="689" x2="31" y2="429" stroke="black" stroke-width="4"/>
<line x1="29" y1="430" x2="273" y2="430" stroke="black" stroke-width="4"/>
<line x1="269" y1="226" x2="528" y2="226" stroke="black" stroke-width="4"/>
<line x1="524" y1="530" x2="768" y2="530" stroke="black" stroke-width="4"/>
<line x1="271" y1="432" x2="271" y2="228" stroke="black" stroke-width="4"/>
<line x1="526" y1="528" x2="526" y2="228" stroke="black" stroke-width="4"/>
<line x1="766" y1="689" x2="766" y2="532" stroke="black" stroke-width="4"/>
<path d="M622 662.664C685.821 690.35 691.493 600.723 629.091 611.985" stroke="#EFDB29" stroke-width="5" stroke-linecap="round"/>
<path d="M631.776 611.993C695.658 612.873 674.364 528.555 619 561.74" stroke="#EFDB29" stroke-width="5" stroke-linecap="round"/>
<path d="M186.03 505.469C187.386 547.17 152.804 553.612 107.395 592.148" stroke="#EFDB29" stroke-width="5" stroke-linecap="round"/>
<line x1="107.5" y1="592.5" x2="181.5" y2="592.5" stroke="#EFDB29" stroke-width="5" stroke-linecap="round"/>
<path d="M119.415 521C97.7829 474.627 186 466.841 186 506.784" stroke="#EFDB29" stroke-width="5" stroke-linecap="round"/>
<line x1="401.347" y1="393.406" x2="401.347" y2="283.406" stroke="#EFDB29" stroke-width="5" stroke-linecap="round"/>
<line x1="400.176" y1="283.484" x2="370.484" y2="325.64" stroke="#EFDB29" stroke-width="5" stroke-linecap="round"/>
<path d="M113.672 393.734V291.195L120.918 287.777H146.826C157.217 287.777 165.648 291.081 172.119 297.689C178.271 303.979 181.348 312.068 181.348 321.957C181.348 331.892 178.271 339.981 172.119 346.225C168.473 349.916 164.212 352.582 159.336 354.223L182.988 388.061L170.957 393.734H170.273L143.955 356.137H127.344V387.582L114.355 393.734H113.672ZM127.344 343.832H146.826C152.796 343.832 158.105 341.485 162.754 336.791C166.035 333.464 167.676 328.52 167.676 321.957C167.676 315.85 166.035 310.906 162.754 307.123C158.698 302.429 153.389 300.082 146.826 300.082H127.344V343.832Z" fill="#09157D"/>
<path d="M372.672 189V89.1953L379.918 85.7773H423.258V86.4609L417.721 98.2188H386.344V131.168H423.258V131.852L417.721 143.609H386.344V176.559H434.674V177.242L429.137 189H372.672Z" fill="#09157D"/>
<path d="M588.672 493.734V420.59C588.672 410.746 591.748 402.657 597.9 396.322C604.372 389.714 612.803 386.41 623.193 386.41C632.581 386.41 640.579 389.714 647.188 396.322C648.828 397.963 650.059 399.558 650.879 401.107C651.927 399.512 653.203 397.986 654.707 396.527C661.589 389.783 669.541 386.41 678.564 386.41C688.773 386.41 697.204 389.714 703.857 396.322C710.01 402.429 713.086 410.518 713.086 420.59V487.582L700.098 493.734H699.414V420.59C699.414 414.483 697.773 409.538 694.492 405.756C690.436 401.062 685.127 398.715 678.564 398.715C672.002 398.715 666.693 401.062 662.637 405.756C659.355 409.538 657.715 414.483 657.715 420.59V487.582L644.727 493.734H644.043V420.59C644.043 414.483 642.402 409.538 639.121 405.756C635.065 401.062 629.756 398.715 623.193 398.715C616.631 398.715 611.322 401.062 607.266 405.756C603.984 409.538 602.344 414.483 602.344 420.59V487.582L589.355 493.734H588.672Z" fill="#09157D"/>
</svg>
