<svg width="339" height="266" viewBox="0 0 339 266" fill="none" xmlns="http://www.w3.org/2000/svg">
<line x1="2.5" y1="87.5" x2="2.5" y2="265.5" stroke="#EFDB29" stroke-linecap="round"/>
<line x1="2" y1="223.5" x2="338" y2="223.5" stroke="#EFDB29"/>
<line x1="337.5" y1="223.5" x2="337.5" y2="265.5" stroke="#EFDB29" stroke-linecap="round"/>
<line x1="337.5" y1="223.5" x2="337.5" y2="168.5" stroke="#EFDB29" stroke-linecap="round"/>
<line x1="107.5" y1="224" x2="107.5" y2="137" stroke="#EFDB29"/>
<line x1="143.5" y1="224" x2="143.5" y2="137" stroke="#EFDB29"/>
<line x1="2" y1="167.5" x2="108" y2="167.5" stroke="#EFDB29"/>
<path d="M63.5 136.5H309" stroke="#EFDB29" stroke-linecap="square"/>
<path d="M309 137C311.759 160.295 319.681 163.197 337.516 168.485" stroke="#EFDB29" stroke-linecap="round"/>
<path d="M64 136.5C48.5 137 45.5 156 49 167.5" stroke="#EFDB29"/>
<path d="M2.49411 141.924C2.1657 176.848 10 163.5 26.0001 167.5" stroke="#EFDB29"/>
<path d="M2.45582 127.795C22.0002 127.795 34.0001 148.5 26 167.5" stroke="#EFDB29"/>
<circle cx="35" cy="122" r="19.5" stroke="#EFDB29"/>
<line x1="60" y1="82.5" x2="79" y2="82.5" stroke="#EFDB29"/>
<line x1="60" y1="99.5" x2="79" y2="99.5" stroke="#EFDB29"/>
<line x1="59.6666" y1="99.6274" x2="78.6666" y2="82.6274" stroke="#EFDB29"/>
<line x1="128" y1="38.5" x2="154" y2="38.5" stroke="#EFDB29"/>
<line x1="128" y1="61.5" x2="154" y2="61.5" stroke="#EFDB29"/>
<line x1="127.669" y1="61.6255" x2="153.669" y2="38.6255" stroke="#EFDB29"/>
<line x1="92" y1="61.5" x2="116" y2="61.5" stroke="#EFDB29"/>
<line x1="92" y1="82.5" x2="116" y2="82.5" stroke="#EFDB29"/>
<line x1="91.6707" y1="82.6237" x2="115.671" y2="61.6237" stroke="#EFDB29"/>
<path d="M238.222 57.3333C239.857 59.0941 242.753 61.4502 246.563 63.1314C251.251 65.2005 257.298 66.2366 264.07 63.9043C277.611 59.2403 284.635 43.8405 279.686 29.4713C275.26 16.6216 262.922 8.1945 249.06 8.84936C255.088 9.89109 259.756 13.0217 263.005 17.2415C267.104 22.5656 268.931 29.6026 268.432 36.3265C267.933 43.0509 265.102 49.5144 259.818 53.6518C254.781 57.5956 247.584 59.3729 238.222 57.3333Z" stroke="#EFDB29"/>
</svg>
