<svg width="292" height="193" viewBox="0 0 292 193" fill="none" xmlns="http://www.w3.org/2000/svg">
<circle r="53" transform="matrix(-1 0 0 1 239 87)" fill="white"/>
<circle r="53" transform="matrix(-1 0 0 1 119 106)" fill="white"/>
<circle r="53" transform="matrix(-1 0 0 1 202 53)" fill="white"/>
<circle r="53" transform="matrix(-1 0 0 1 171 69)" fill="white"/>
<circle r="53" transform="matrix(-1 0 0 1 171 140)" fill="white"/>
<circle r="53" transform="matrix(-1 0 0 1 202 140)" fill="white"/>
<circle r="53" transform="matrix(-1 0 0 1 103 53)" fill="white"/>
<circle r="53" transform="matrix(-1 0 0 1 53 106)" fill="white"/>
<circle r="53" transform="matrix(-1 0 0 1 103 140)" fill="white"/>
</svg>
