<svg width="1440" height="37" viewBox="0 0 1440 37" fill="none" xmlns="http://www.w3.org/2000/svg">
<mask id="path-1-inside-1_0_1" fill="white">
<path d="M89.5316 37L180.925 -0.5H-1.86145L89.5316 37Z"/>
</mask>
<path d="M89.5316 37L127.492 129.515L89.5316 145.091L51.5712 129.515L89.5316 37ZM180.925 -0.5V-100.5L218.885 92.0149L180.925 -0.5ZM-1.86145 -0.5L-39.8218 92.0149L-1.86145 -100.5V-0.5ZM51.5712 -55.5149L142.964 -93.0149L218.885 92.0149L127.492 129.515L51.5712 -55.5149ZM180.925 99.5H-1.86145V-100.5H180.925V99.5ZM36.0989 -93.0149L127.492 -55.5149L51.5712 129.515L-39.8218 92.0149L36.0989 -93.0149Z" fill="#8AAAE8" mask="url(#path-1-inside-1_0_1)"/>
<mask id="path-3-inside-2_0_1" fill="white">
<path d="M269.006 37L360.398 -0.5H177.614L269.006 37Z"/>
</mask>
<path d="M269.006 37L306.967 129.515L269.006 145.091L231.046 129.515L269.006 37ZM360.398 -0.5V-100.5L398.359 92.0148L360.398 -0.5ZM177.614 -0.5L139.653 92.0148L177.614 -100.5V-0.5ZM231.046 -55.5148L322.438 -93.0148L398.359 92.0148L306.967 129.515L231.046 -55.5148ZM360.398 99.5H177.614V-100.5H360.398V99.5ZM215.575 -93.0148L306.967 -55.5148L231.046 129.515L139.653 92.0148L215.575 -93.0148Z" fill="#8AAAE8" mask="url(#path-3-inside-2_0_1)"/>
<mask id="path-5-inside-3_0_1" fill="white">
<path d="M449.511 37L540.903 -0.5H358.119L449.511 37Z"/>
</mask>
<path d="M449.511 37L487.472 129.515L449.511 145.091L411.55 129.515L449.511 37ZM540.903 -0.5V-100.5L578.864 92.0148L540.903 -0.5ZM358.119 -0.5L320.158 92.0148L358.119 -100.5V-0.5ZM411.55 -55.5148L502.943 -93.0148L578.864 92.0148L487.472 129.515L411.55 -55.5148ZM540.903 99.5H358.119V-100.5H540.903V99.5ZM396.08 -93.0148L487.472 -55.5148L411.55 129.515L320.158 92.0148L396.08 -93.0148Z" fill="#8AAAE8" mask="url(#path-5-inside-3_0_1)"/>
<mask id="path-7-inside-4_0_1" fill="white">
<path d="M630 37L721.824 -0.5H538.176L630 37Z"/>
</mask>
<path d="M630 37L667.808 129.577L630 145.018L592.192 129.577L630 37ZM721.824 -0.5V-100.5L759.632 92.0774L721.824 -0.5ZM538.176 -0.5L500.368 92.0774L538.176 -100.5V-0.5ZM592.192 -55.5774L684.016 -93.0774L759.632 92.0774L667.808 129.577L592.192 -55.5774ZM721.824 99.5H538.176V-100.5H721.824V99.5ZM575.983 -93.0774L667.808 -55.5774L592.192 129.577L500.368 92.0774L575.983 -93.0774Z" fill="#8AAAE8" mask="url(#path-7-inside-4_0_1)"/>
<mask id="path-9-inside-5_0_1" fill="white">
<path d="M810.498 37L901.891 -0.5H719.105L810.498 37Z"/>
</mask>
<path d="M810.498 37L848.458 129.515L810.498 145.091L772.538 129.515L810.498 37ZM901.891 -0.5V-100.5L939.851 92.0149L901.891 -0.5ZM719.105 -0.5L681.145 92.0149L719.105 -100.5V-0.5ZM772.538 -55.5149L863.931 -93.0149L939.851 92.0149L848.458 129.515L772.538 -55.5149ZM901.891 99.5H719.105V-100.5H901.891V99.5ZM757.065 -93.0149L848.458 -55.5149L772.538 129.515L681.145 92.0149L757.065 -93.0149Z" fill="#8AAAE8" mask="url(#path-9-inside-5_0_1)"/>
<mask id="path-11-inside-6_0_1" fill="white">
<path d="M990.488 37L1081.88 -0.5H899.095L990.488 37Z"/>
</mask>
<path d="M990.488 37L1028.45 129.515L990.488 145.091L952.528 129.515L990.488 37ZM1081.88 -0.5V-100.5L1119.84 92.0149L1081.88 -0.5ZM899.095 -0.5L861.135 92.0149L899.095 -100.5V-0.5ZM952.528 -55.5149L1043.92 -93.0149L1119.84 92.0149L1028.45 129.515L952.528 -55.5149ZM1081.88 99.5H899.095V-100.5H1081.88V99.5ZM937.055 -93.0149L1028.45 -55.5149L952.528 129.515L861.135 92.0149L937.055 -93.0149Z" fill="#8AAAE8" mask="url(#path-11-inside-6_0_1)"/>
<mask id="path-13-inside-7_0_1" fill="white">
<path d="M1170.48 37L1261.87 -0.5H1079.09L1170.48 37Z"/>
</mask>
<path d="M1170.48 37L1208.44 129.515L1170.48 145.091L1132.52 129.515L1170.48 37ZM1261.87 -0.5V-100.5L1299.83 92.0148L1261.87 -0.5ZM1079.09 -0.5L1041.12 92.0148L1079.09 -100.5V-0.5ZM1132.52 -55.5148L1223.91 -93.0148L1299.83 92.0148L1208.44 129.515L1132.52 -55.5148ZM1261.87 99.5H1079.09V-100.5H1261.87V99.5ZM1117.05 -93.0148L1208.44 -55.5148L1132.52 129.515L1041.12 92.0148L1117.05 -93.0148Z" fill="#8AAAE8" mask="url(#path-13-inside-7_0_1)"/>
<mask id="path-15-inside-8_0_1" fill="white">
<path d="M1350.47 37L1441.86 -0.5H1259.08L1350.47 37Z"/>
</mask>
<path d="M1350.47 37L1388.43 129.515L1350.47 145.091L1312.51 129.515L1350.47 37ZM1441.86 -0.5V-100.5L1479.82 92.0149L1441.86 -0.5ZM1259.08 -0.5L1221.12 92.0149L1259.08 -100.5V-0.5ZM1312.51 -55.5149L1403.9 -93.0149L1479.82 92.0149L1388.43 129.515L1312.51 -55.5149ZM1441.86 99.5H1259.08V-100.5H1441.86V99.5ZM1297.04 -93.0149L1388.43 -55.5149L1312.51 129.515L1221.12 92.0149L1297.04 -93.0149Z" fill="#8AAAE8" mask="url(#path-15-inside-8_0_1)"/>
</svg>
